PathFileType  4	(X/Y/Z) /Users/mattheworga/Documents/Git/desktop-development/pyqt5/sandbox-thesis/process/test_subjects/S00_Demo_Batch/S00_P00/Trial_1/pose-3d
DataRate	CameraRate	NumFrames	NumMarkers	Units	OrigDataRate	OrigDataStartFrame	OrigNumFrames
60.0	60.0	10	23	m	60.0	66	99
Frame#	Time	Hip			RHip			RKnee			RAnkle			RBigToe			RSmallToe			RHeel			LHip			LKnee			LAnkle			LBigToe			LSmallToe			LHeel			Neck			Head			Nose			RShoulder			RElbow			RWrist			LShoulder			LElbow			LWrist			CHip			
		X1	Y1	Z1	X2	Y2	Z2	X3	Y3	Z3	X4	Y4	Z4	X5	Y5	Z5	X6	Y6	Z6	X7	Y7	Z7	X8	Y8	Z8	X9	Y9	Z9	X10	Y10	Z10	X11	Y11	Z11	X12	Y12	Z12	X13	Y13	Z13	X14	Y14	Z14	X15	Y15	Z15	X16	Y16	Z16	X17	Y17	Z17	X18	Y18	Z18	X19	Y19	Z19	X20	Y20	Z20	X21	Y21	Z21	X22	Y22	Z22	X23	Y23	Z23	

67	1.1000000	-0.1205145	0.9596191	-0.9615819	-0.2300569	0.9843105	-0.9665147	-0.2811988	0.6137982	-0.7965730	-0.3060255	0.2357011	-0.7445703	-0.2599352	0.1785765	-0.5717156	-0.3135831	0.1801457	-0.5945967	-0.3099281	0.1861987	-0.7678077	-0.0357821	0.9139913	-0.9562911	-0.0482424	0.5041498	-0.9699460	-0.0219790	0.1501168	-1.1475604	-0.0011887	0.0724616	-0.9933529	0.0269964	0.0739302	-1.0380793	-0.0252293	0.1005802	-1.1989305	0.1888735	1.3597345	-0.8504355	0.3369654	1.5186899	-0.6408576	0.2563155	1.3434152	-0.6946632	0.0053098	1.4415634	-0.8763374	-0.2601413	1.4555530	-0.8520957	-0.1522049	1.5521226	-0.6484049	0.2938724	1.2178764	-0.9511866	0.3718476	0.9481276	-0.9966023	0.4147081	0.7025494	-0.9058999	-0.1329195	0.9491509	-0.9614029
68	1.1166667	-0.1193516	0.9568406	-0.9547745	-0.2284417	0.9794393	-0.9588319	-0.2597251	0.6021916	-0.7973015	-0.2731582	0.2259776	-0.7368962	-0.2244867	0.1701489	-0.5588670	-0.2792814	0.1674717	-0.5857206	-0.2773790	0.1763633	-0.7604841	-0.0342969	0.9128830	-0.9525298	-0.0451134	0.5034580	-0.9707136	-0.0226733	0.1508152	-1.1456793	0.0042193	0.0720142	-0.9961152	0.0294149	0.0730754	-1.0397865	-0.0279348	0.1027278	-1.1973539	0.1823528	1.3646242	-0.8424297	0.3282577	1.5261569	-0.6301022	0.2487558	1.3482225	-0.6854563	-0.0019567	1.4440332	-0.8619363	-0.2692158	1.4494863	-0.8469448	-0.1653006	1.5450149	-0.6388950	0.2895953	1.2248327	-0.9426425	0.3699239	0.9562442	-0.9897269	0.4151756	0.7118082	-0.8967303	-0.1313693	0.9461611	-0.9556808
69	1.1333333	-0.1179714	0.9536283	-0.9478067	-0.2263362	0.9746440	-0.9512076	-0.2400225	0.5932083	-0.7964316	-0.2427222	0.2165454	-0.7307654	-0.1931305	0.1627656	-0.5460180	-0.2496711	0.1548489	-0.5796590	-0.2467244	0.1666001	-0.7555026	-0.0323262	0.9110670	-0.9499420	-0.0426711	0.5043698	-0.9688635	-0.0234487	0.1527227	-1.1448633	0.0058898	0.0729474	-0.9981661	0.0311941	0.0722287	-1.0409911	-0.0303639	0.1059041	-1.1965714	0.1752821	1.3696715	-0.8345924	0.3184015	1.5343459	-0.6204618	0.2405714	1.3538532	-0.6766394	-0.0088580	1.4468975	-0.8457122	-0.2781103	1.4433178	-0.8417961	-0.1784446	1.5381215	-0.6276247	0.2850044	1.2320261	-0.9342709	0.3679301	0.9653073	-0.9827989	0.4162602	0.7220435	-0.8877110	-0.1293312	0.9428555	-0.9505748
70	1.1500000	-0.1159042	0.9499214	-0.9402213	-0.2235763	0.9698943	-0.9432234	-0.2223709	0.5867537	-0.7936017	-0.2143245	0.2072114	-0.7257103	-0.1657131	0.1551372	-0.5346023	-0.2239556	0.1424029	-0.5753147	-0.2173324	0.1566986	-0.7521496	-0.0292413	0.9087324	-0.9466321	-0.0404376	0.5064544	-0.9642577	-0.0242041	0.1554391	-1.1451050	0.0033605	0.0744297	-0.9987247	0.0323331	0.0712898	-1.0415963	-0.0322183	0.1094579	-1.1965706	0.1674306	1.3747974	-0.8266526	0.3073038	1.5429347	-0.6110137	0.2319004	1.3597527	-0.6685091	-0.0156971	1.4498154	-0.8288892	-0.2868850	1.4367859	-0.8362525	-0.1914459	1.5311337	-0.6139596	0.2798653	1.2396487	-0.9260236	0.3659499	0.9753282	-0.9758370	0.4179435	0.7332402	-0.8792928	-0.1264088	0.9393134	-0.9449277
71	1.1666667	-0.1127504	0.9457319	-0.9313514	-0.2199316	0.9650676	-0.9341615	-0.2066429	0.5815881	-0.7891557	-0.1875296	0.1977097	-0.7219245	-0.1419389	0.1454787	-0.5274884	-0.2011885	0.1301028	-0.5721880	-0.1887614	0.1464276	-0.7501240	-0.0244944	0.9062536	-0.9401996	-0.0377619	0.5089924	-0.9576316	-0.0247873	0.1582520	-1.1458897	-0.0017246	0.0757126	-0.9978547	0.0331389	0.0703531	-1.0417803	-0.0333402	0.1126970	-1.1969503	0.1587185	1.3800930	-0.8182119	0.2949885	1.5517999	-0.6017267	0.2230345	1.3658202	-0.6611087	-0.0233653	1.4521266	-0.8139017	-0.2955210	1.4296464	-0.8301920	-0.2043170	1.5238293	-0.5981578	0.2739807	1.2479139	-0.9177754	0.3640997	0.9862714	-0.9690284	0.4201064	0.7454302	-0.8717801	-0.1222130	0.9356606	-0.9371805
72	1.1833333	-0.1083095	0.9411597	-0.9207232	-0.2152001	0.9599630	-0.9233208	-0.1923567	0.5759329	-0.7837901	-0.1619991	0.1877606	-0.7197002	-0.1213877	0.1326955	-0.5266587	-0.1807004	0.1177061	-0.5706198	-0.1608898	0.1356290	-0.7492177	-0.0180255	0.9039112	-0.9292685	-0.0342873	0.5108394	-0.9508258	-0.0251453	0.1605263	-1.1467009	-0.0068266	0.0763386	-0.9961853	0.0339226	0.0696447	-1.0419023	-0.0337969	0.1152021	-1.1972836	0.1492408	1.3856909	-0.8089998	0.2815772	1.5609678	-0.5930680	0.2142290	1.3725277	-0.6540541	-0.0328315	1.4531704	-0.8032785	-0.3040330	1.4217538	-0.8236378	-0.2175001	1.5159970	-0.5818120	0.2672652	1.2569892	-0.9095009	0.3624728	0.9982067	-0.9627136	0.4228021	0.7587537	-0.8653708	-0.1166128	0.9319371	-0.9262947
73	1.2000000	-0.1026242	0.9363525	-0.9084001	-0.2092887	0.9543810	-0.9104480	-0.1789165	0.5685507	-0.7779412	-0.1376784	0.1773135	-0.7191652	-0.1037236	0.1175361	-0.5313764	-0.1623210	0.1052327	-0.5712756	-0.1340032	0.1245227	-0.7492806	-0.0103691	0.9016366	-0.9146473	-0.0302545	0.5105772	-0.9461394	-0.0254494	0.1619804	-1.1473438	-0.0101936	0.0760692	-0.9943528	0.0347654	0.0693277	-1.0423180	-0.0338983	0.1169253	-1.1974356	0.1391925	1.3916005	-0.7990391	0.2671080	1.5704930	-0.5852623	0.2054146	1.3806324	-0.6465251	-0.0444358	1.4527587	-0.7978320	-0.3126953	1.4130077	-0.8166453	-0.2317966	1.5073094	-0.5677791	0.2597261	1.2669606	-0.9014542	0.3611015	1.0112149	-0.9573292	0.4263002	0.7733765	-0.8600196	-0.1098289	0.9280088	-0.9125476
74	1.2166667	-0.0958744	0.9314299	-0.8950200	-0.2021812	0.9481983	-0.8959537	-0.1658927	0.5594051	-0.7715765	-0.1148900	0.1667815	-0.7204572	-0.0888510	0.1021516	-0.5390113	-0.1462863	0.0932527	-0.5745119	-0.1087917	0.1138509	-0.7504326	-0.0022006	0.8991758	-0.8983833	-0.0262371	0.5075176	-0.9445978	-0.0259981	0.1626703	-1.1478882	-0.0114262	0.0748122	-0.9927145	0.0355135	0.0693632	-1.0431573	-0.0340654	0.1180710	-1.1975636	0.1287666	1.3977691	-0.7886541	0.2514359	1.5804714	-0.5780279	0.1960357	1.3910047	-0.6375119	-0.0578214	1.4511867	-0.7964424	-0.3219879	1.4032665	-0.8093211	-0.2479543	1.4972814	-0.5585364	0.2513728	1.2778575	-0.8941526	0.3599811	1.0253121	-0.9532593	0.4309953	0.7894542	-0.8554142	-0.1021909	0.9236870	-0.8971685
75	1.2333333	-0.0882734	0.9264163	-0.8816004	-0.1939285	0.9414228	-0.8806862	-0.1531558	0.5496271	-0.7641723	-0.0942791	0.1569121	-0.7236258	-0.0767517	0.0885725	-0.5470799	-0.1329043	0.0825916	-0.5800109	-0.0862001	0.1044948	-0.7529321	0.0060843	0.8963718	-0.8822297	-0.0226366	0.5023503	-0.9450823	-0.0269202	0.1628043	-1.1484099	-0.0109530	0.0726307	-0.9913836	0.0359155	0.0695273	-1.0442721	-0.0345649	0.1189032	-1.1978411	0.1180904	1.4042070	-0.7782624	0.2343997	1.5910146	-0.5708785	0.1851943	1.4044544	-0.6260546	-0.0722852	1.4489126	-0.7968498	-0.3321877	1.3923898	-0.8019372	-0.2660917	1.4855000	-0.5538994	0.2422463	1.2896473	-0.8880780	0.3591192	1.0404963	-0.9505344	0.4373366	0.8071906	-0.8511860	-0.0939221	0.9188973	-0.8814579
76	1.2500000	-0.0801247	0.9212652	-0.8692359	-0.1847436	0.9342291	-0.8655328	-0.1408695	0.5409707	-0.7547447	-0.0766812	0.1483297	-0.7282626	-0.0673776	0.0778353	-0.5541434	-0.1223633	0.0738670	-0.5867504	-0.0672177	0.0968600	-0.7567254	0.0143507	0.8932251	-0.8672261	-0.0194170	0.4965200	-0.9453640	-0.0279823	0.1626179	-1.1487929	-0.0094568	0.0697473	-0.9903930	0.0357587	0.0695355	-1.0454106	-0.0352993	0.1196358	-1.1982385	0.1071975	1.4109292	-0.7681403	0.2160140	1.6020599	-0.5633517	0.1720759	1.4210797	-0.6114643	-0.0869578	1.4463485	-0.7962342	-0.3430453	1.3803562	-0.7949638	-0.2855118	1.4718790	-0.5510136	0.2325781	1.3021247	-0.8831160	0.3586470	1.0567683	-0.9485161	0.4457686	0.8269134	-0.8471278	-0.0851964	0.9137271	-0.8663794
